<svg xmlns="http://www.w3.org/2000/svg" xmlns:xlink="http://www.w3.org/1999/xlink" width="500" zoomAndPan="magnify" viewBox="0 0 375 374.999991" height="500" preserveAspectRatio="xMidYMid meet" version="1.0"><defs><clipPath id="f690fefa65"><path d="M 264 153 L 298.179688 153 L 298.179688 222 L 264 222 Z M 264 153 " clip-rule="nonzero"/></clipPath><clipPath id="1d980be6b0"><path d="M 48.535156 10.988281 L 298.179688 10.988281 L 298.179688 364.015625 L 48.535156 364.015625 Z M 48.535156 10.988281 " clip-rule="nonzero"/></clipPath></defs><g clip-path="url(#f690fefa65)"><path fill="#5e17eb" d="M 298.179688 221.011719 L 298.179688 153.953125 L 264.648438 187.484375 Z M 298.179688 221.011719 " fill-opacity="1" fill-rule="nonzero"/></g><g clip-path="url(#1d980be6b0)"><path fill="#5e17eb" d="M 225.0625 364.011719 L 292.84375 364.011719 C 296.378906 351.597656 298.179688 338.652344 298.179688 325.550781 C 298.179688 264.054688 257.089844 208.742188 198.257812 191.039062 C 198.253906 191.035156 198.25 191.035156 198.25 191.03125 C 198.03125 190.964844 197.820312 190.878906 197.621094 190.773438 C 197.488281 190.703125 197.371094 190.613281 197.25 190.53125 C 197.171875 190.476562 197.085938 190.433594 197.011719 190.371094 C 196.90625 190.285156 196.816406 190.179688 196.722656 190.082031 C 196.652344 190.011719 196.578125 189.953125 196.515625 189.875 C 196.417969 189.757812 196.34375 189.628906 196.261719 189.503906 C 196.21875 189.429688 196.164062 189.367188 196.125 189.292969 C 196.011719 189.082031 195.921875 188.863281 195.851562 188.636719 C 195.851562 188.632812 195.847656 188.628906 195.847656 188.625 C 195.828125 188.5625 195.828125 188.503906 195.8125 188.441406 C 195.769531 188.277344 195.730469 188.109375 195.710938 187.9375 C 195.703125 187.820312 195.710938 187.707031 195.710938 187.585938 C 195.710938 187.46875 195.703125 187.351562 195.710938 187.234375 C 195.730469 187.0625 195.769531 186.898438 195.8125 186.730469 C 195.828125 186.671875 195.828125 186.609375 195.847656 186.550781 C 195.847656 186.542969 195.851562 186.539062 195.851562 186.535156 C 195.867188 186.488281 195.886719 186.449219 195.90625 186.402344 C 195.960938 186.238281 196.023438 186.078125 196.101562 185.929688 C 196.132812 185.871094 196.171875 185.816406 196.207031 185.761719 C 196.28125 185.628906 196.363281 185.503906 196.457031 185.382812 C 196.5 185.324219 196.550781 185.269531 196.601562 185.214844 C 196.695312 185.105469 196.792969 185.007812 196.898438 184.910156 C 196.957031 184.859375 197.015625 184.808594 197.078125 184.757812 C 197.199219 184.664062 197.332031 184.578125 197.464844 184.496094 C 197.515625 184.464844 197.5625 184.429688 197.617188 184.402344 C 197.8125 184.300781 198.011719 184.21875 198.222656 184.152344 C 198.234375 184.148438 198.246094 184.140625 198.257812 184.136719 C 257.089844 166.433594 298.179688 111.121094 298.179688 49.621094 C 298.179688 36.46875 296.367188 23.472656 292.792969 10.957031 L 225.0625 10.957031 C 177.90625 10.957031 133.570312 29.320312 100.222656 62.660156 C 66.890625 96 48.535156 140.328125 48.535156 187.484375 C 48.535156 284.824219 127.726562 364.011719 225.0625 364.011719 " fill-opacity="1" fill-rule="nonzero"/></g></svg>